<?xml version="1.0" encoding="UTF-8" standalone="no"?>
<!DOCTYPE svg PUBLIC "-//W3C//DTD SVG 1.0//EN" "http://www.w3.org/TR/2001/PR-SVG-20010719/DTD/svg10.dtd">
<svg width="47cm" height="30cm" viewBox="142 -249 939 596" xmlns="http://www.w3.org/2000/svg" xmlns:xlink="http://www.w3.org/1999/xlink">
  <g>
    <line style="fill: none; fill-opacity:0; stroke-width: 2; stroke-dasharray: 4; stroke: #000000" x1="693.198" y1="-71.3066" x2="845.246" y2="-71.3066"/>
    <polyline style="fill: none; fill-opacity:0; stroke-width: 2; stroke: #000000" points="837.482,-66.3066 847.482,-71.3066 837.482,-76.3066 "/>
  </g>
  <g>
    <ellipse style="fill: #ffffff" cx="650.185" cy="-200.917" rx="46.2512" ry="46.2512"/>
    <ellipse style="fill: none; fill-opacity:0; stroke-width: 2; stroke-dasharray: 4; stroke: #0000ff" cx="650.185" cy="-200.917" rx="46.2512" ry="46.2512"/>
    <text style="fill: #0000ff;text-anchor:middle;font-size:12.8;font-family:sanserif;font-style:normal;font-weight:normal" x="650.185" y="-213.017">
      <tspan x="650.185" y="-213.017">UBF</tspan>
      <tspan x="650.185" y="-197.017">TCP/IP</tspan>
      <tspan x="650.185" y="-181.017">Listener</tspan>
    </text>
  </g>
  <g>
    <ellipse style="fill: #ffffff" cx="332.96" cy="-72.0218" rx="47.9782" ry="47.9782"/>
    <ellipse style="fill: none; fill-opacity:0; stroke-width: 2; stroke: #ff0000" cx="332.96" cy="-72.0218" rx="47.9782" ry="47.9782"/>
    <text style="fill: #ff0000;text-anchor:middle;font-size:12.8;font-family:sanserif;font-style:normal;font-weight:normal" x="332.96" y="-76.1218">
      <tspan x="332.96" y="-76.1218">UBF</tspan>
      <tspan x="332.96" y="-60.1218">Client</tspan>
    </text>
  </g>
  <g>
    <path style="fill: none; fill-opacity:0; stroke-width: 2; stroke: #000000" d="M 429.917,-115.439 A 63.3404,63.3404 0 0 0 366.886,-105.948"/>
    <polygon style="fill: #000000" points="436.661,-112.337 425.505,-113.082 430.191,-116.131 430.563,-121.708 "/>
    <polygon style="fill: none; fill-opacity:0; stroke-width: 2; stroke: #000000" points="436.661,-112.337 425.505,-113.082 430.191,-116.131 430.563,-121.708 "/>
  </g>
  <g>
    <ellipse style="fill: #ffffff" cx="467.978" cy="-72.0218" rx="47.9782" ry="47.9782"/>
    <ellipse style="fill: none; fill-opacity:0; stroke-width: 2; stroke: #ff0000" cx="467.978" cy="-72.0218" rx="47.9782" ry="47.9782"/>
    <text style="fill: #ff0000;text-anchor:middle;font-size:12.8;font-family:sanserif;font-style:normal;font-weight:normal" x="467.978" y="-76.1218">
      <tspan x="467.978" y="-76.1218">UBF</tspan>
      <tspan x="467.978" y="-60.1218">Driver</tspan>
    </text>
  </g>
  <g>
    <ellipse style="fill: #ffffff" cx="650.186" cy="-71.3067" rx="43.0119" ry="43.0119"/>
    <ellipse style="fill: none; fill-opacity:0; stroke-width: 2; stroke: #0000ff" cx="650.186" cy="-71.3067" rx="43.0119" ry="43.0119"/>
    <text style="fill: #0000ff;text-anchor:middle;font-size:12.8;font-family:sanserif;font-style:normal;font-weight:normal" x="650.186" y="-75.4067">
      <tspan x="650.186" y="-75.4067">UBF</tspan>
      <tspan x="650.186" y="-59.4067">Driver</tspan>
    </text>
  </g>
  <g>
    <ellipse style="fill: #ffffff" cx="769.838" cy="-71.3067" rx="43.0426" ry="43.0426"/>
    <ellipse style="fill: none; fill-opacity:0; stroke-width: 2; stroke: #0000ff" cx="769.838" cy="-71.3067" rx="43.0426" ry="43.0426"/>
    <text style="fill: #0000ff;text-anchor:middle;font-size:12.8;font-family:sanserif;font-style:normal;font-weight:normal" x="769.838" y="-75.4067">
      <tspan x="769.838" y="-75.4067">Contract</tspan>
      <tspan x="769.838" y="-59.4067">Manager</tspan>
    </text>
  </g>
  <g>
    <ellipse style="fill: #ffffff" cx="892.73" cy="-71.3067" rx="43.0119" ry="43.0119"/>
    <ellipse style="fill: none; fill-opacity:0; stroke-width: 2; stroke: #0000ff" cx="892.73" cy="-71.3067" rx="43.0119" ry="43.0119"/>
    <text style="fill: #0000ff;text-anchor:middle;font-size:12.8;font-family:sanserif;font-style:normal;font-weight:normal" x="892.73" y="-75.4067">
      <tspan x="892.73" y="-75.4067">Plugin</tspan>
      <tspan x="892.73" y="-59.4067">Handler</tspan>
    </text>
  </g>
  <g>
    <ellipse style="fill: #ffffff" cx="192.75" cy="-72.0217" rx="49.6638" ry="49.6638"/>
    <ellipse style="fill: none; fill-opacity:0; stroke-width: 2; stroke: #000000" cx="192.75" cy="-72.0217" rx="49.6638" ry="49.6638"/>
    <text style="fill: #000000;text-anchor:middle;font-size:12.8;font-family:sanserif;font-style:normal;font-weight:normal" x="192.75" y="-76.1217">
      <tspan x="192.75" y="-76.1217">Client</tspan>
      <tspan x="192.75" y="-60.1217">Application</tspan>
    </text>
  </g>
  <g>
    <ellipse style="fill: #ffffff" cx="1029.89" cy="63.4179" rx="49.6638" ry="49.6638"/>
    <ellipse style="fill: none; fill-opacity:0; stroke-width: 2; stroke: #000000" cx="1029.89" cy="63.4179" rx="49.6638" ry="49.6638"/>
    <text style="fill: #000000;text-anchor:middle;font-size:12.8;font-family:sanserif;font-style:normal;font-weight:normal" x="1029.89" y="59.3179">
      <tspan x="1029.89" y="59.3179">Server</tspan>
      <tspan x="1029.89" y="75.3179">Application</tspan>
    </text>
  </g>
  <g>
    <path style="fill: none; fill-opacity:0; stroke-width: 2; stroke: #000000" d="M 294.598,-115.324 A 67.2549,67.2549 0 0 0 227.828,-107.1"/>
    <polygon style="fill: #000000" points="301.285,-112.081 290.141,-112.989 294.871,-115.969 295.326,-121.541 "/>
    <polygon style="fill: none; fill-opacity:0; stroke-width: 2; stroke: #000000" points="301.285,-112.081 290.141,-112.989 294.871,-115.969 295.326,-121.541 "/>
  </g>
  <g>
    <line style="fill: none; fill-opacity:0; stroke-width: 2; stroke: #000000" x1="520.428" y1="-71.9867" x2="602.702" y2="-71.3417"/>
    <polyline style="fill: none; fill-opacity:0; stroke-width: 2; stroke: #000000" points="528.231,-76.9257 518.192,-72.0043 528.152,-66.926 "/>
    <polyline style="fill: none; fill-opacity:0; stroke-width: 2; stroke: #000000" points="594.899,-66.4027 604.938,-71.3241 594.978,-76.4024 "/>
  </g>
  <g>
    <path style="fill: none; fill-opacity:0; stroke-width: 2; stroke: #000000" d="M 738.172,-113.853 A 67.0166,67.0166 0 0 0 666.646,-111.044"/>
    <polygon style="fill: #000000" points="744.41,-109.814 733.463,-112.088 738.524,-114.462 739.661,-119.936 "/>
    <polygon style="fill: none; fill-opacity:0; stroke-width: 2; stroke: #000000" points="744.41,-109.814 733.463,-112.088 738.524,-114.462 739.661,-119.936 "/>
  </g>
  <g>
    <path style="fill: none; fill-opacity:0; stroke-width: 2; stroke: #000000" d="M 854.867,-107.715 A 43.8205,43.8205 0 0 0 800.252,-101.721"/>
    <polygon style="fill: #000000" points="860.737,-103.304 850.136,-106.855 855.442,-108.615 857.218,-113.916 "/>
    <polygon style="fill: none; fill-opacity:0; stroke-width: 2; stroke: #000000" points="860.737,-103.304 850.136,-106.855 855.442,-108.615 857.218,-113.916 "/>
  </g>
  <g>
    <path style="fill: none; fill-opacity:0; stroke-width: 2; stroke: #000000" d="M 1006.2,9.07951 A 155.24,155.24 0 0 0 941.321,-50.8307"/>
    <polygon style="fill: #000000" points="1009.89,15.5961 1000.87,8.98231 1006.46,8.92354 1009.77,4.41638 "/>
    <polygon style="fill: none; fill-opacity:0; stroke-width: 2; stroke: #000000" points="1009.89,15.5961 1000.87,8.98231 1006.46,8.92354 1009.77,4.41638 "/>
    <polygon style="fill: #000000" points="934.532,-53.9873 945.686,-54.7593 941.456,-51.1044 941.842,-45.5276 "/>
    <polygon style="fill: none; fill-opacity:0; stroke-width: 2; stroke: #000000" points="934.532,-53.9873 945.686,-54.7593 941.456,-51.1044 941.842,-45.5276 "/>
  </g>
  <g>
    <path style="fill: none; fill-opacity:0; stroke-width: 2; stroke: #000000" d="M 806.926,-34.1059 A 39.1342,39.1342 0 0 0 862.316,-40.8926"/>
    <polygon style="fill: #000000" points="801.614,-39.1195 811.672,-34.2362 806.184,-33.1723 803.742,-28.1435 "/>
    <polygon style="fill: none; fill-opacity:0; stroke-width: 2; stroke: #000000" points="801.614,-39.1195 811.672,-34.2362 806.184,-33.1723 803.742,-28.1435 "/>
  </g>
  <g>
    <path style="fill: none; fill-opacity:0; stroke-width: 2; stroke: #000000" d="M 373.929,-31.493 A 64.4827,64.4827 0 0 0 449.618,-27.6958"/>
    <polygon style="fill: #000000" points="368.398,-36.4488 378.844,-32.4636 373.47,-30.9239 371.478,-25.7009 "/>
    <polygon style="fill: none; fill-opacity:0; stroke-width: 2; stroke: #000000" points="368.398,-36.4488 378.844,-32.4636 373.47,-30.9239 371.478,-25.7009 "/>
  </g>
  <g>
    <path style="fill: none; fill-opacity:0; stroke-width: 2; stroke: #000000" d="M 235.185,-30.7818 A 49.1049,49.1049 0 0 0 299.034,-38.096"/>
    <polygon style="fill: #000000" points="229.394,-35.3467 239.966,-31.7091 234.646,-29.9925 232.827,-24.7065 "/>
    <polygon style="fill: none; fill-opacity:0; stroke-width: 2; stroke: #000000" points="229.394,-35.3467 239.966,-31.7091 234.646,-29.9925 232.827,-24.7065 "/>
  </g>
  <g>
    <path style="fill: none; fill-opacity:0; stroke-width: 2; stroke: #000000" d="M 688.645,-35.5245 A 72.8967,72.8967 0 0 0 753.378,-31.5688"/>
    <polygon style="fill: #000000" points="682.374,-39.5308 693.35,-37.4068 688.322,-34.9634 687.26,-29.475 "/>
    <polygon style="fill: none; fill-opacity:0; stroke-width: 2; stroke: #000000" points="682.374,-39.5308 693.35,-37.4068 688.322,-34.9634 687.26,-29.475 "/>
  </g>
  <g>
    <line style="fill: none; fill-opacity:0; stroke-width: 2; stroke-dasharray: 4; stroke: #000000" x1="650.185" y1="-153.666" x2="650.186" y2="-119.779"/>
    <polyline style="fill: none; fill-opacity:0; stroke-width: 2; stroke: #000000" points="645.186,-127.542 650.186,-117.542 655.186,-127.542 "/>
  </g>
  <g>
    <line style="fill: none; fill-opacity:0; stroke-width: 2; stroke-dasharray: 4; stroke: #000000" x1="693.198" y1="-71.3066" x2="726.016" y2="-85.9448"/>
    <polyline style="fill: none; fill-opacity:0; stroke-width: 2; stroke: #000000" points="720.962,-78.2158 728.058,-86.8557 716.888,-87.3485 "/>
  </g>
  <text style="fill: #000000;text-anchor:start;font-size:16;font-family:sanserif;font-style:normal;font-weight:normal" x="539.306" y="-77.691">
    <tspan x="539.306" y="-77.691">TCP/IP</tspan>
  </text>
  <line style="fill: none; fill-opacity:0; stroke-width: 2; stroke-dasharray: 20; stroke: #ff0000" x1="264.972" y1="-183.022" x2="265.972" y2="38.9782"/>
  <line style="fill: none; fill-opacity:0; stroke-width: 2; stroke-dasharray: 20; stroke: #0000ff" x1="952.616" y1="-182.307" x2="953.616" y2="39.6934"/>
  <g>
    <ellipse style="fill: #ffffff" cx="467.978" cy="-202.632" rx="44.3344" ry="44.3344"/>
    <ellipse style="fill: none; fill-opacity:0; stroke-width: 2; stroke-dasharray: 4; stroke: #ff0000" cx="467.978" cy="-202.632" rx="44.3344" ry="44.3344"/>
    <text style="fill: #ff0000;text-anchor:middle;font-size:12.8;font-family:sanserif;font-style:normal;font-weight:normal" x="467.978" y="-214.732">
      <tspan x="467.978" y="-214.732">UBF</tspan>
      <tspan x="467.978" y="-198.732">TCP/IP</tspan>
      <tspan x="467.978" y="-182.732">Client</tspan>
    </text>
  </g>
  <g>
    <line style="fill: none; fill-opacity:0; stroke-width: 2; stroke-dasharray: 4; stroke: #000000" x1="467.978" y1="-158.297" x2="467.978" y2="-124.472"/>
    <polyline style="fill: none; fill-opacity:0; stroke-width: 2; stroke: #000000" points="462.978,-132.236 467.978,-122.236 472.978,-132.236 "/>
  </g>
  <g>
    <ellipse style="fill: #ffffff" cx="332.98" cy="172.746" rx="47.9782" ry="47.9782"/>
    <ellipse style="fill: none; fill-opacity:0; stroke-width: 2; stroke: #ff0000" cx="332.98" cy="172.746" rx="47.9782" ry="47.9782"/>
    <text style="fill: #ff0000;text-anchor:middle;font-size:12.8;font-family:sanserif;font-style:normal;font-weight:normal" x="332.98" y="168.646">
      <tspan x="332.98" y="168.646">JSON</tspan>
      <tspan x="332.98" y="184.646">Client</tspan>
    </text>
  </g>
  <g>
    <path style="fill: none; fill-opacity:0; stroke-width: 2; stroke: #000000" d="M 429.937,129.329 A 63.3404,63.3404 0 0 0 366.906,138.82"/>
    <polygon style="fill: #000000" points="436.681,132.431 425.525,131.686 430.211,128.637 430.583,123.06 "/>
    <polygon style="fill: none; fill-opacity:0; stroke-width: 2; stroke: #000000" points="436.681,132.431 425.525,131.686 430.211,128.637 430.583,123.06 "/>
  </g>
  <g>
    <ellipse style="fill: #ffffff" cx="467.998" cy="172.746" rx="47.9782" ry="47.9782"/>
    <ellipse style="fill: none; fill-opacity:0; stroke-width: 2; stroke: #ff0000" cx="467.998" cy="172.746" rx="47.9782" ry="47.9782"/>
    <text style="fill: #ff0000;text-anchor:middle;font-size:12.8;font-family:sanserif;font-style:normal;font-weight:normal" x="467.998" y="168.646">
      <tspan x="467.998" y="168.646">JSON-RPC</tspan>
      <tspan x="467.998" y="184.646">Driver</tspan>
    </text>
  </g>
  <g>
    <ellipse style="fill: #ffffff" cx="192.77" cy="172.746" rx="49.6638" ry="49.6638"/>
    <ellipse style="fill: none; fill-opacity:0; stroke-width: 2; stroke: #000000" cx="192.77" cy="172.746" rx="49.6638" ry="49.6638"/>
    <text style="fill: #000000;text-anchor:middle;font-size:12.8;font-family:sanserif;font-style:normal;font-weight:normal" x="192.77" y="168.646">
      <tspan x="192.77" y="168.646">Client</tspan>
      <tspan x="192.77" y="184.646">Application</tspan>
    </text>
  </g>
  <g>
    <path style="fill: none; fill-opacity:0; stroke-width: 2; stroke: #000000" d="M 294.618,129.444 A 67.2549,67.2549 0 0 0 227.848,137.668"/>
    <polygon style="fill: #000000" points="301.305,132.687 290.161,131.779 294.891,128.799 295.346,123.227 "/>
    <polygon style="fill: none; fill-opacity:0; stroke-width: 2; stroke: #000000" points="301.305,132.687 290.161,131.779 294.891,128.799 295.346,123.227 "/>
  </g>
  <g>
    <line style="fill: none; fill-opacity:0; stroke-width: 2; stroke: #000000" x1="520.448" y1="172.782" x2="600.916" y2="173.425"/>
    <polyline style="fill: none; fill-opacity:0; stroke-width: 2; stroke: #000000" points="528.252,167.844 518.212,172.764 528.172,177.844 "/>
    <polyline style="fill: none; fill-opacity:0; stroke-width: 2; stroke: #000000" points="593.112,178.363 603.152,173.443 593.192,168.364 "/>
  </g>
  <g>
    <path style="fill: none; fill-opacity:0; stroke-width: 2; stroke: #000000" d="M 373.949,213.275 A 64.4826,64.4826 0 0 0 449.638,217.072"/>
    <polygon style="fill: #000000" points="368.418,208.319 378.864,212.304 373.49,213.844 371.498,219.067 "/>
    <polygon style="fill: none; fill-opacity:0; stroke-width: 2; stroke: #000000" points="368.418,208.319 378.864,212.304 373.49,213.844 371.498,219.067 "/>
  </g>
  <g>
    <path style="fill: none; fill-opacity:0; stroke-width: 2; stroke: #000000" d="M 235.205,213.985 A 49.1049,49.1049 0 0 0 299.054,206.672"/>
    <polygon style="fill: #000000" points="229.414,209.42 239.986,213.058 234.666,214.775 232.847,220.061 "/>
    <polygon style="fill: none; fill-opacity:0; stroke-width: 2; stroke: #000000" points="229.414,209.42 239.986,213.058 234.666,214.775 232.847,220.061 "/>
  </g>
  <text style="fill: #000000;text-anchor:start;font-size:16;font-family:sanserif;font-style:normal;font-weight:normal" x="543.532" y="163.077">
    <tspan x="543.532" y="163.077">HTTP</tspan>
  </text>
  <line style="fill: none; fill-opacity:0; stroke-width: 2; stroke-dasharray: 20; stroke: #ff0000" x1="264.992" y1="61.7462" x2="265.992" y2="283.746"/>
  <line style="fill: none; fill-opacity:0; stroke-width: 2; stroke-dasharray: 20; stroke: #0000ff" x1="955.662" y1="62.4614" x2="956.662" y2="284.462"/>
  <g>
    <ellipse style="fill: #ffffff" cx="467.996" cy="43.1359" rx="44.3344" ry="44.3344"/>
    <ellipse style="fill: none; fill-opacity:0; stroke-width: 2; stroke-dasharray: 4; stroke: #ff0000" cx="467.996" cy="43.1359" rx="44.3344" ry="44.3344"/>
    <text style="fill: #ff0000;text-anchor:middle;font-size:12.8;font-family:sanserif;font-style:normal;font-weight:normal" x="467.996" y="39.0359">
      <tspan x="467.996" y="39.0359">HTTP</tspan>
      <tspan x="467.996" y="55.0359">Client</tspan>
    </text>
  </g>
  <g>
    <line style="fill: none; fill-opacity:0; stroke-width: 2; stroke-dasharray: 4; stroke: #000000" x1="467.997" y1="88.466" x2="467.998" y2="120.296"/>
    <polyline style="fill: none; fill-opacity:0; stroke-width: 2; stroke: #000000" points="462.998,112.532 467.998,122.532 472.998,112.532 "/>
  </g>
  <g>
    <ellipse style="fill: #ffffff" cx="650.811" cy="43.851" rx="44.5769" ry="44.5769"/>
    <ellipse style="fill: none; fill-opacity:0; stroke-width: 2; stroke-dasharray: 4; stroke: #0000ff" cx="650.811" cy="43.851" rx="44.5769" ry="44.5769"/>
    <text style="fill: #0000ff;text-anchor:middle;font-size:12.8;font-family:sanserif;font-style:normal;font-weight:normal" x="650.811" y="39.751">
      <tspan x="650.811" y="39.751">HTTP</tspan>
      <tspan x="650.811" y="55.751">Listener</tspan>
    </text>
  </g>
  <g>
    <ellipse style="fill: #ffffff" cx="650.809" cy="173.461" rx="45.4308" ry="45.4308"/>
    <ellipse style="fill: none; fill-opacity:0; stroke-width: 2; stroke: #0000ff" cx="650.809" cy="173.461" rx="45.4308" ry="45.4308"/>
    <text style="fill: #0000ff;text-anchor:middle;font-size:12.8;font-family:sanserif;font-style:normal;font-weight:normal" x="650.809" y="169.361">
      <tspan x="650.809" y="169.361">JSON-RPC</tspan>
      <tspan x="650.809" y="185.361">Driver</tspan>
    </text>
  </g>
  <g>
    <line style="fill: none; fill-opacity:0; stroke-width: 2; stroke-dasharray: 4; stroke: #000000" x1="650.81" y1="89.425" x2="650.81" y2="122.561"/>
    <polyline style="fill: none; fill-opacity:0; stroke-width: 2; stroke: #000000" points="645.81,114.797 650.81,124.797 655.81,114.797 "/>
  </g>
  <g>
    <path style="fill: none; fill-opacity:0; stroke-width: 2; stroke: #000000" d="M 911.454,171.806 A 261.693,261.693 0 0 0 1003.92,116.019"/>
    <polygon style="fill: #000000" points="1009.33,110.835 1005.82,121.451 1004.04,116.152 998.735,114.397 "/>
    <polygon style="fill: none; fill-opacity:0; stroke-width: 2; stroke: #000000" points="1009.33,110.835 1005.82,121.451 1004.04,116.152 998.735,114.397 "/>
    <polygon style="fill: #000000" points="904.344,174.178 912.436,166.463 911.513,171.977 915.371,176.023 "/>
    <polygon style="fill: none; fill-opacity:0; stroke-width: 2; stroke: #000000" points="904.344,174.178 912.436,166.463 911.513,171.977 915.371,176.023 "/>
  </g>
  <g>
    <g>
      <rect style="fill: #ffffff" x="789.112" y="260.484" width="89.7956" height="85.7599" rx="2.35099e-37" ry="2.35099e-37"/>
      <rect style="fill: none; fill-opacity:0; stroke-width: 2; stroke-linejoin: round; stroke: #000000" x="789.112" y="260.484" width="89.7956" height="85.7599" rx="2.35099e-37" ry="2.35099e-37"/>
    </g>
    <text style="fill: #000000;text-anchor:middle;font-size:16;font-family:sanserif;font-style:normal;font-weight:normal" x="833.798" y="284.976">
      <tspan x="833.798" y="284.976">Service</tspan>
      <tspan x="833.798" y="304.976">Contract</tspan>
      <tspan x="833.798" y="324.976">"B"</tspan>
    </text>
  </g>
  <g>
    <g>
      <rect style="fill: #ffffff" x="726.962" y="241.914" width="89.7956" height="85.7599" rx="2.35099e-37" ry="2.35099e-37"/>
      <rect style="fill: none; fill-opacity:0; stroke-width: 2; stroke-linejoin: round; stroke: #000000" x="726.962" y="241.914" width="89.7956" height="85.7599" rx="2.35099e-37" ry="2.35099e-37"/>
    </g>
    <text style="fill: #000000;text-anchor:middle;font-size:16;font-family:sanserif;font-style:normal;font-weight:normal" x="771.648" y="266.406">
      <tspan x="771.648" y="266.406">Service</tspan>
      <tspan x="771.648" y="286.406">Contract</tspan>
      <tspan x="771.648" y="306.406">"A"</tspan>
    </text>
  </g>
  <g>
    <line style="fill: none; fill-opacity:0; stroke-width: 2; stroke-linejoin: round; stroke-dasharray: 20 4 4 4 4 4; stroke: #000000" x1="771.86" y1="241.914" x2="853.005" y2="218.933"/>
    <polyline style="fill: none; fill-opacity:0; stroke-width: 2; stroke: #000000" points="846.897,225.859 855.157,218.323 844.173,216.237 "/>
  </g>
  <g>
    <line style="fill: none; fill-opacity:0; stroke-width: 2; stroke-dasharray: 20 4 4 4 4 4; stroke: #000000" x1="771.86" y1="241.914" x2="770.135" y2="-25.235"/>
    <polyline style="fill: none; fill-opacity:0; stroke-width: 2; stroke: #000000" points="775.185,-17.5035 770.121,-27.471 765.186,-17.439 "/>
  </g>
  <g>
    <rect style="fill: #ffffff" x="812.41" y="131.954" width="89.7956" height="85.7599" rx="2.35099e-37" ry="2.35099e-37"/>
    <rect style="fill: none; fill-opacity:0; stroke-width: 2; stroke-linejoin: round; stroke: #0000ff" x="812.41" y="131.954" width="89.7956" height="85.7599" rx="2.35099e-37" ry="2.35099e-37"/>
  </g>
  <text style="fill: #0000ff;text-anchor:middle;font-size:16;font-family:sanserif;font-style:normal;font-weight:normal" x="857.308" y="170.384">
    <tspan x="857.308" y="170.384">LPC</tspan>
    <tspan x="857.308" y="190.384">Client</tspan>
  </text>
  <g>
    <line style="fill: none; fill-opacity:0; stroke-width: 2; stroke-linejoin: round; stroke: #000000" x1="700.704" y1="173.514" x2="807.938" y2="174.781"/>
    <polyline style="fill: none; fill-opacity:0; stroke-width: 2; stroke: #000000" points="708.526,168.606 698.468,173.488 708.408,178.605 "/>
    <polyline style="fill: none; fill-opacity:0; stroke-width: 2; stroke: #000000" points="800.116,179.689 810.174,174.808 800.234,169.69 "/>
  </g>
</svg>
